<?xml version="1.0" standalone="no"?>
<!DOCTYPE svg PUBLIC "-//W3C//DTD SVG 20010904//EN"
 "http://www.w3.org/TR/2001/REC-SVG-20010904/DTD/svg10.dtd">
<svg version="1.0" xmlns="http://www.w3.org/2000/svg"
 width="1280.000000pt" height="1234.000000pt" viewBox="0 0 1280.000000 1234.000000"
 preserveAspectRatio="xMidYMid meet">
<metadata>
Created by potrace 1.15, written by Peter Selinger 2001-2017
</metadata>
<g transform="translate(0.000000,1234.000000) scale(0.100000,-0.100000)"
fill="#FF0000" stroke="none">
<path d="M6155 12334 c-27 -2 -120 -8 -205 -14 -912 -64 -1759 -297 -2337
-642 -319 -191 -678 -533 -915 -873 -294 -422 -478 -899 -550 -1425 -16 -124
-17 -543 0 -680 62 -508 175 -909 366 -1305 127 -262 256 -463 409 -637 l77
-88 -36 -187 c-34 -178 -36 -199 -36 -393 -1 -292 40 -526 131 -746 21 -52 36
-94 33 -94 -13 0 -500 243 -705 352 -284 151 -289 156 -419 413 -134 266 -195
351 -338 467 -95 77 -248 157 -350 183 -45 12 -93 16 -156 13 -81 -3 -100 -8
-165 -40 -129 -64 -238 -190 -297 -343 -52 -139 -77 -289 -95 -579 -4 -53 -8
-63 -38 -89 -230 -201 -324 -299 -406 -425 -100 -152 -137 -284 -115 -412 39
-230 226 -379 565 -452 151 -32 383 -32 567 2 99 18 171 24 270 25 l135 0 380
-179 c538 -253 1052 -500 1548 -741 l428 -208 -3 -60 -3 -59 -130 -70 c-733
-391 -1397 -696 -1586 -728 -90 -15 -156 -9 -304 30 -239 62 -401 62 -638 1
-162 -42 -200 -62 -276 -139 -158 -161 -208 -370 -137 -574 42 -119 99 -190
331 -410 l213 -203 11 -70 c6 -38 22 -174 35 -300 21 -206 27 -238 55 -305 62
-149 179 -270 309 -321 77 -30 241 -33 322 -5 158 54 244 117 393 292 95 110
146 183 229 321 58 98 129 210 156 249 l51 71 729 386 730 387 158 -158 c268
-265 440 -368 797 -476 279 -85 498 -121 834 -136 363 -17 739 6 988 61 214
48 462 133 630 217 177 88 383 246 541 415 l79 85 725 -378 c681 -355 728
-381 774 -431 69 -77 118 -155 191 -307 79 -163 131 -238 232 -332 241 -223
434 -313 608 -283 106 18 188 63 271 147 141 144 206 347 235 739 l12 159 121
101 c158 131 310 285 369 372 161 238 118 512 -105 680 -82 61 -151 95 -271
134 -234 75 -426 80 -672 17 -167 -43 -240 -46 -335 -13 -36 13 -424 189 -863
392 l-798 370 3 75 3 74 1150 542 c633 298 1173 550 1200 559 96 33 185 31
330 -6 124 -32 138 -34 305 -33 275 0 435 30 584 106 106 55 211 158 255 252
56 117 76 264 47 359 -27 90 -222 332 -429 534 l-115 112 -7 98 c-16 233 -86
527 -161 674 -52 105 -179 209 -292 243 -231 67 -460 -23 -721 -284 -100 -100
-146 -173 -236 -376 -35 -79 -79 -167 -99 -196 -78 -117 -97 -130 -558 -356
-236 -116 -428 -209 -428 -207 0 1 11 27 24 56 101 229 154 547 143 849 -5
123 -15 198 -46 359 l-40 204 68 73 c320 336 568 790 692 1264 131 499 130
1119 -1 1650 -155 628 -494 1195 -974 1629 -295 266 -491 393 -813 525 -473
194 -1196 372 -1753 431 -137 14 -766 28 -885 19z m865 -499 c610 -70 1327
-262 1756 -470 468 -227 958 -765 1189 -1305 111 -257 181 -524 216 -815 21
-168 18 -600 -4 -750 -58 -391 -204 -771 -411 -1069 l-41 -59 -7 44 c-12 77
-8 329 7 452 11 99 26 153 84 325 117 341 129 397 152 685 22 290 -1 477 -76
627 -33 65 -127 190 -143 190 -5 0 -82 -77 -171 -171 l-164 -170 21 -22 c58
-61 73 -192 53 -444 -17 -200 -31 -262 -112 -497 -89 -254 -106 -326 -124
-511 -19 -190 -19 -359 0 -550 24 -250 34 -310 123 -755 l57 -285 0 -195 c-1
-260 -32 -422 -115 -595 -87 -181 -181 -240 -625 -394 -269 -94 -412 -169
-646 -338 -248 -179 -398 -457 -416 -770 l-6 -103 -36 -10 c-76 -22 -281 -59
-406 -74 -236 -28 -533 -38 -960 -33 -474 6 -640 21 -896 78 l-97 22 -6 45
c-3 25 -6 66 -6 91 -1 100 -57 293 -118 401 -85 151 -180 260 -312 359 -230
173 -316 216 -624 313 -457 143 -576 228 -666 476 -63 173 -97 419 -86 607 4
55 31 224 61 375 103 525 124 675 132 961 11 386 -11 523 -138 880 -70 199
-88 278 -105 481 -22 259 -10 379 45 440 l29 32 -167 173 -166 174 -52 -56
c-143 -155 -196 -374 -173 -714 23 -335 39 -414 150 -721 78 -217 91 -282 97
-505 3 -110 3 -240 -2 -289 l-7 -89 -34 54 c-62 98 -202 392 -249 524 -201
558 -263 1133 -173 1605 47 250 110 436 233 685 258 526 654 936 1145 1184
527 267 1219 434 2040 491 187 13 789 3 950 -15z m4628 -5607 c16 -20 60 -168
83 -280 13 -67 22 -157 25 -258 4 -104 10 -169 21 -199 12 -35 59 -87 228
-255 234 -233 315 -328 298 -355 -29 -46 -124 -73 -313 -88 -126 -9 -152 -7
-305 29 -218 52 -372 50 -559 -9 -57 -18 -1635 -753 -2208 -1029 -21 -9 -40
-16 -42 -13 -6 6 27 168 59 284 30 110 108 333 122 345 4 5 415 208 913 452
l905 443 78 75 c106 100 188 213 249 340 173 360 149 321 250 410 79 68 156
120 179 120 4 0 11 -6 17 -12z m-10407 -60 c39 -20 89 -57 130 -98 59 -59 77
-88 159 -251 50 -101 112 -215 138 -253 57 -86 172 -203 243 -249 131 -83 652
-348 1169 -595 574 -274 674 -323 682 -335 34 -54 178 -563 178 -630 0 -3
-177 80 -392 185 -473 229 -1109 532 -1538 733 -281 132 -324 149 -405 162
-122 20 -334 12 -530 -22 -159 -27 -262 -31 -362 -15 -77 13 -182 45 -208 64
-17 12 -18 17 -7 38 40 73 131 174 277 303 165 147 220 206 244 260 7 17 19
117 27 235 16 237 19 259 45 360 22 80 53 140 73 140 7 0 42 -14 77 -32z
m3349 -1870 c93 -115 132 -210 146 -355 l7 -73 45 0 c36 0 42 -2 33 -14 -9
-10 -4 -18 25 -37 l35 -24 -1 -389 c0 -215 -3 -392 -6 -395 -3 -3 -16 6 -28
22 -18 23 -27 62 -49 220 -31 216 -72 423 -118 596 -25 92 -133 438 -156 498
-12 32 21 7 67 -49z m3620 -129 c-102 -307 -160 -558 -209 -902 -19 -133 -36
-218 -46 -234 -9 -13 -18 -23 -20 -21 -2 2 -5 180 -6 397 l-2 394 42 25 c26
15 40 30 37 38 -4 11 6 14 44 14 l50 0 0 63 c0 79 29 191 65 254 30 51 86 126
90 121 2 -2 -19 -69 -45 -149z m240 -74 c-27 -96 -58 -282 -66 -390 -5 -65 -2
-112 10 -170 53 -271 41 -601 -35 -905 -92 -371 -432 -790 -784 -968 -87 -43
-303 -120 -432 -153 -170 -43 -276 -58 -517 -71 -240 -13 -574 -1 -761 27
-206 31 -494 115 -640 186 -277 135 -602 504 -727 825 -75 194 -112 424 -112
699 0 164 4 222 23 325 24 135 23 212 -5 379 -8 46 -13 86 -11 88 6 5 61 -198
97 -352 27 -120 53 -275 88 -525 13 -90 21 -124 31 -122 8 2 10 -4 6 -17 -12
-38 234 -261 403 -364 268 -163 622 -262 1062 -296 548 -44 932 -7 1329 126
351 117 644 311 758 501 25 42 25 43 7 57 -18 14 -18 15 5 12 24 -2 25 1 38
98 52 402 99 623 199 943 47 149 67 190 34 67z m-713 -689 c-5 -11 -136 -86
-151 -86 -3 0 -6 81 -6 180 0 136 3 182 13 185 6 2 39 12 72 22 l60 18 8 -154
c5 -84 6 -159 4 -165z m-2517 92 c0 -98 -3 -178 -6 -178 -3 0 -37 16 -75 36
l-69 36 0 112 c0 61 3 134 6 162 l6 51 69 -21 69 -20 0 -178z m2170 -62 l0
-204 -78 -21 c-124 -33 -112 -53 -112 192 l0 214 73 10 c39 5 82 10 95 11 l22
2 0 -204z m-1865 183 l75 -11 0 -108 c0 -59 -3 -154 -6 -212 l-7 -106 -71 20
c-116 33 -106 11 -106 233 0 224 -13 203 115 184z m1485 -243 l0 -224 -27 -6
c-16 -3 -46 -7 -68 -8 l-40 -3 -3 227 -2 227 52 4 c29 2 61 4 71 5 16 2 17
-15 17 -222z m-1074 201 c3 -3 2 -106 -2 -229 -7 -221 -7 -225 -28 -222 -12 2
-42 6 -68 9 l-48 6 0 226 0 226 70 -5 c39 -3 73 -8 76 -11z m382 -234 l2 -233
-95 0 -95 0 0 235 0 236 93 -3 92 -3 3 -232z m362 8 l0 -228 -52 -7 c-29 -3
-68 -6 -85 -6 l-33 0 0 235 0 235 85 0 85 0 0 -229z m1043 -527 c-22 -16 -128
-74 -137 -74 -3 0 -6 79 -6 175 l0 175 78 39 77 39 3 -170 c2 -153 1 -172 -15
-184z m-2570 311 l67 -29 0 -178 c0 -98 -2 -178 -5 -178 -7 0 -108 62 -127 78
-16 13 -18 35 -18 179 0 91 4 163 8 161 4 -1 38 -16 75 -33z m370 -132 l67
-17 0 -188 c0 -103 -3 -188 -7 -188 -5 0 -45 12 -90 26 l-83 26 0 185 0 185
23 -6 c12 -3 52 -13 90 -23z m1867 -158 l0 -184 -81 -26 c-44 -14 -84 -25 -90
-25 -5 0 -9 76 -9 189 l0 189 78 20 c42 11 83 20 90 21 9 1 12 -42 12 -184z
m-370 -90 l0 -193 -50 -11 c-98 -21 -90 -38 -90 189 l0 199 33 5 c51 9 91 12
100 8 4 -2 7 -90 7 -197z m-1137 180 l47 -6 0 -191 0 -190 -67 7 c-38 4 -71 9
-75 12 -5 2 -8 90 -8 194 l0 191 28 -6 c15 -2 48 -8 75 -11z m800 -147 c4 -79
7 -171 7 -204 0 -61 0 -62 -31 -68 -17 -3 -58 -6 -90 -6 l-59 0 0 205 0 204
73 4 c39 1 77 4 83 5 7 1 13 -46 17 -140z m-365 -73 l2 -195 -77 0 c-135 0
-124 -18 -123 200 1 104 4 190 7 193 2 3 46 3 96 1 l92 -4 3 -195z m-2327
-224 c31 -116 72 -227 113 -309 l24 -47 -745 -395 c-556 -294 -754 -404 -781
-432 -61 -64 -145 -182 -232 -327 -133 -221 -174 -280 -254 -371 -70 -78 -135
-130 -162 -130 -25 0 -45 54 -55 143 -32 305 -41 383 -60 482 -11 61 -29 128
-41 151 -13 27 -102 119 -256 265 -129 123 -243 237 -253 254 -40 64 -15 95
97 121 124 29 244 24 388 -14 215 -57 349 -64 535 -26 116 23 397 136 771 309
161 74 774 384 841 424 18 11 35 19 36 17 2 -2 17 -54 34 -115z m5607 -232
c405 -188 758 -349 784 -360 102 -40 188 -54 328 -53 122 0 150 4 290 38 140
35 164 38 250 33 66 -3 120 -13 175 -32 81 -27 145 -60 145 -75 0 -18 -150
-167 -274 -273 -167 -142 -242 -213 -265 -251 -25 -41 -37 -112 -57 -341 -22
-268 -56 -423 -96 -449 -21 -13 -92 34 -200 134 -74 68 -81 79 -158 235 -95
193 -166 296 -290 421 -77 77 -109 101 -203 151 -78 42 -1321 687 -1344 697
-1 1 16 37 36 81 45 93 95 241 112 326 6 32 16 59 21 59 5 0 341 -153 746
-341z"/>
<path d="M5305 7744 c-5 -2 -176 -24 -378 -49 -413 -51 -648 -88 -722 -111
-239 -77 -409 -273 -446 -514 -17 -112 -2 -186 75 -377 210 -515 202 -500 350
-649 134 -133 263 -203 446 -240 156 -31 301 -2 435 87 83 56 121 95 280 294
243 303 458 660 491 814 42 198 -4 429 -113 569 -71 91 -143 142 -238 167 -54
14 -155 19 -180 9z"/>
<path d="M7333 7735 c-84 -23 -134 -53 -200 -121 -70 -72 -123 -170 -149 -279
-21 -88 -23 -250 -5 -335 45 -205 416 -768 675 -1026 176 -174 367 -221 613
-149 146 42 253 105 363 214 108 107 159 183 211 310 26 64 76 187 113 274 90
218 106 273 106 371 0 203 -100 388 -271 502 -116 77 -186 99 -450 138 -277
42 -797 107 -889 112 -38 2 -87 -2 -117 -11z"/>
<path d="M6200 6111 c-212 -174 -356 -374 -455 -629 -58 -150 -78 -290 -79
-537 -1 -191 1 -217 22 -290 101 -349 268 -336 595 47 40 47 46 59 37 75 -8
13 -9 209 -3 701 4 376 4 690 0 698 -4 8 -11 14 -15 13 -4 0 -50 -35 -102 -78z"/>
<path d="M6494 6168 c-5 -8 -6 -315 -3 -703 4 -436 2 -695 -4 -702 -20 -27
246 -293 338 -339 67 -32 126 -35 163 -7 72 53 130 179 152 332 20 137 7 393
-29 576 -37 191 -202 490 -357 651 -57 58 -232 204 -245 204 -4 0 -10 -6 -15
-12z"/>
</g>
</svg>
